<svg id="Layer_1" data-name="Layer 1" xmlns="http://www.w3.org/2000/svg" viewBox="0 0 100 21.49"><defs><style>.cls-1{fill:#ffa72a;}</style></defs><title>logo_color</title><path d="M88.92,21.54A1.43,1.43,0,0,0,89.7,21a.83.83,0,0,1,.42-.39c.46-.13.24-.4.16-.6s-.06-.13-.08-.21a.23.23,0,0,0,0-.24c0-.06-.07,0-.1,0a2,2,0,0,1,.06-.68,6.75,6.75,0,0,0,.18-1.34,3.55,3.55,0,0,1,1.5,1.14.94.94,0,0,0,.08.43,1.21,1.21,0,0,1,.11.32c0,.12,0,.23,0,.35a.46.46,0,0,0,.13.27.12.12,0,0,0,.08,0c.1,0,.17-.17.21-.24s.09-.23.13-.34a2,2,0,0,0,0-.61A1.06,1.06,0,0,0,93,18.5c.13-.32-.3-.38-.3-.38a1,1,0,0,1-.3-.08s0-.15-.1-.19-.09.11-.09.11a2,2,0,0,1-.61-.57A3.81,3.81,0,0,0,90,16.21a4.4,4.4,0,0,0,.31-.52c.08.12.29.06.29.06s.25,0,.25,0a.13.13,0,0,0,.2,0,.12.12,0,0,0,.14,0c0,.31.17.13.24,0a.2.2,0,0,0,0-.13l0-.41.07-.12v-.51c.86.12.71-.39.67-.68s.18-.45.14-.67a.73.73,0,0,0-.06-.23,2.65,2.65,0,0,0,1-.85,1.61,1.61,0,0,1,.27-.4.21.21,0,0,0,0-.2c-.23-1.35-.5-1.17-.49-1.74A1.65,1.65,0,0,0,93,9l.21-.32a.16.16,0,0,1,.09-.07.93.93,0,0,0,.66-.94.76.76,0,0,0-.06-.26,1,1,0,0,1-.08-.23.75.75,0,0,0-.1-.2,1.56,1.56,0,0,0-.45-.33.75.75,0,0,0-.39-.07h0a.63.63,0,0,0-.24.09s0,0,0,0l0,0h0l-.21,0h-.11a.12.12,0,0,0,0,.12s0,0,0,.05h0A.09.09,0,0,0,92,7h0s0,0,0,0-.06.06-.1.08h0c-.08,0-.13,0-.14.1h0s0-.09-.06-.12a.83.83,0,0,1-.07-.13l0-.9a1,1,0,0,1,0-.24,2.3,2.3,0,0,0,0-.73c-.07-.47-.11-.92-.11-.93v-1l-.6,0a4.19,4.19,0,0,1,0,1.1,2.76,2.76,0,0,0-.13,1.37l.09.37a1.05,1.05,0,0,1,0,.31,4.06,4.06,0,0,0,.12,1.16,1,1,0,0,1,0,.73.61.61,0,0,1-.13.23,2.18,2.18,0,0,0-.57.93c-.13.44-.37.58-.39.91l0,.81a.15.15,0,0,1,0,.09.36.36,0,0,0,0,.32.32.32,0,0,1,0,.09s0,.13-.05.13-.1-.07-.09-.12c0-.21,0-.18-.06-.23a.09.09,0,0,0-.09-.05,2.36,2.36,0,0,1,0-.53c.06-.56.16-1.13.22-1.69s.15-1.3.22-1.95c.09-.85.37-3.18.47-4h-.09c-.09.85-.38,3.18-.47,4-.07.65-.14,1.3-.22,2s-.15,1.13-.21,1.69a1.58,1.58,0,0,0,0,.53s-.1.05-.1.23a.62.62,0,0,0,0,.64,1.22,1.22,0,0,1,0,.27.12.12,0,0,0-.08.11c0,.07.07.12.17.13v.12a.9.9,0,0,0-.07.38.3.3,0,0,0,.13.36s-.17.38-.26.66-.12.52-.16.56a.9.9,0,0,0,0,.37c0,.18-.15.2-.21.8l0,0a.55.55,0,0,0,.08.5c.07.09.12.23.26.27a9.15,9.15,0,0,1,.35,2.49,2.31,2.31,0,0,0-.07.42c0,.13,0,.34,0,.34s-.27.24-.32.39a2,2,0,0,1-.26.55C88.51,21.29,88.46,21.61,88.92,21.54Zm2.87-9.37c.09-.09,0-.37,0-.41a.46.46,0,0,0,.18-.29,4.43,4.43,0,0,1,.48-.67,5.66,5.66,0,0,0,.25.51,4.84,4.84,0,0,0-.45.83,1,1,0,0,1-.43.55h-.12s0-.06-.13-.2S91.71,12.26,91.79,12.17Zm-2.34-.28-.06,0a.16.16,0,0,0-.09.12s0,.05,0,.05-.05-.06-.05-.09a.38.38,0,0,1,0-.15.19.19,0,0,1,0-.1,0,0,0,0,1,.06,0s0,0,0,.06.06,0,.09.05a0,0,0,0,1,0,.06Z" transform="translate(0 -0.05)"/><path d="M13.07,5a5.3,5.3,0,0,1,3,.69,2.32,2.32,0,0,1,1,2,5,5,0,0,1-.32,1.79,3.59,3.59,0,0,1-1,1.42,5,5,0,0,1-1.83.93,9.7,9.7,0,0,1-2.71.33H0L2.92,9.15H12a1.85,1.85,0,0,0,1.09-.25.88.88,0,0,0,.34-.77c0-.48-.37-.71-1.13-.71H5.77a4.67,4.67,0,0,1-3-.79,2.58,2.58,0,0,1-.95-2.1,4.28,4.28,0,0,1,.32-1.69,3.45,3.45,0,0,1,1-1.36A5.09,5.09,0,0,1,5,.57,9.89,9.89,0,0,1,7.68.25H18.09L15.15,3.37H6.84a2,2,0,0,0-1.09.22.83.83,0,0,0-.34.76c0,.46.38.68,1.14.68Z" transform="translate(0 -0.05)"/><path d="M33.72,9.15,30.8,12.23h-6a7.68,7.68,0,0,1-2.56-.4,6.09,6.09,0,0,1-2-1.11A5,5,0,0,1,19,9,4.87,4.87,0,0,1,18.55,7a5.52,5.52,0,0,1,.67-2.7A6.54,6.54,0,0,1,21,2.12,8.43,8.43,0,0,1,23.66.74,10.67,10.67,0,0,1,26.9.25h8.4L32.36,3.37h-6a4.72,4.72,0,0,0-1.56.25,4.16,4.16,0,0,0-1.3.7,3.49,3.49,0,0,0-.88,1,2.8,2.8,0,0,0-.32,1.32,2.23,2.23,0,0,0,.22,1,2.17,2.17,0,0,0,.63.78,2.92,2.92,0,0,0,1,.5,4,4,0,0,0,1.23.18Z" transform="translate(0 -0.05)"/><path d="M67.73,9.15l-3,3.08H54.19l2.13-12H60l-1.58,8.9Z" transform="translate(0 -0.05)"/><path d="M82.88,9.15l-2.94,3.08H68.41l2.13-12H84.4l-3,3.12H73.69L73.44,4.8h9.48L80.34,7.52H73l-.29,1.63Z" transform="translate(0 -0.05)"/><path d="M88.66,11.89a1.32,1.32,0,0,1,.08-.44.78.78,0,0,1,.08-.23,2.88,2.88,0,0,1,0-.33.45.45,0,0,0,0-.11L89,9.84q.06-.35.09-.69H87.86l.77-4.39H84.92L83.6,12.23h5.11A1.21,1.21,0,0,1,88.66,11.89Z" transform="translate(0 -0.05)"/><path d="M99.55,3.28a4.58,4.58,0,0,0-1.27-1.6,6,6,0,0,0-2-1A8.31,8.31,0,0,0,93.73.25H88.07L85.15,3.37h8a3.75,3.75,0,0,1,1.24.19,2.9,2.9,0,0,1,1,.52,2.47,2.47,0,0,1,.63.81,2.45,2.45,0,0,1,.22,1,2.8,2.8,0,0,1-.32,1.32,3.44,3.44,0,0,1-.87,1,4.36,4.36,0,0,1-1.29.66l-.07,0L93.5,9l0,0a2.71,2.71,0,0,1,.11.81.42.42,0,0,0,.07.3,4.25,4.25,0,0,1,.41,1.35A.7.7,0,0,1,94,12l.85-.25a9.08,9.08,0,0,0,2.67-1.47A7,7,0,0,0,99.34,8a5.7,5.7,0,0,0,.66-2.7A4.68,4.68,0,0,0,99.55,3.28Z" transform="translate(0 -0.05)"/><path class="cls-1" d="M38.93,12.23l2.8-3.08h4.12a9.91,9.91,0,0,1,1,0c-.13-.22-.28-.49-.45-.82s-.32-.63-.47-.92L44.34,4.28l-7,8H32.93L42.53,1.4A5.07,5.07,0,0,1,43.64.47,2.73,2.73,0,0,1,45.16.05,2.1,2.1,0,0,1,46.5.44a3.11,3.11,0,0,1,.8,1l5.57,10.83Z" transform="translate(0 -0.05)"/></svg>